<svg width="32" height="32" viewBox="0 0 32 32" fill="none" xmlns="http://www.w3.org/2000/svg">
<g clip-path="url(#clip0_504_18238)">
<g clip-path="url(#clip1_504_18238)">
<path d="M6.00002 15H17C18.1045 15 19 14.1046 19 13V6.00002C19 4.89545 18.1045 4 17 4H6.00002C4.89545 4 4 4.89545 4 6.00002V13C4 14.1046 4.89545 15 6.00002 15Z" fill="#408FEA"/>
<path d="M27.658 4.882C27.2863 4.33066 26.6649 4.00009 26 4H23C21.8955 4 21 4.89545 21 6.00002V13C21 14.1046 21.8954 15 23 15H26C27.1046 15 28 14.1046 28 13V6.00002C28.0007 5.60148 27.8815 5.21195 27.658 4.882Z" fill="#408FEA"/>
<path d="M10.118 17.342C9.78803 17.1185 9.3985 16.9993 8.99997 17H5.99997C4.89545 17 4 17.8955 4 19V26C4 27.1046 4.89545 28 6.00002 28H9.00002C10.1046 28 11 27.1046 11 26V19C10.9999 18.3351 10.6693 17.7137 10.118 17.342Z" fill="#408FEA"/>
<path d="M27.118 17.342C26.788 17.1185 26.3985 16.9993 26 17H15C13.8955 17 13 17.8955 13 19V26C13 27.1046 13.8955 28 15 28H26C27.1046 28 28 27.1046 28 26V19C27.9999 18.3351 27.6693 17.7137 27.118 17.342Z" fill="#408FEA"/>
</g>
</g>
<defs>
<clipPath id="clip0_504_18238">
<rect width="32" height="32" fill="white"/>
</clipPath>
<clipPath id="clip1_504_18238">
<rect width="24" height="24" fill="white" transform="translate(4 4)"/>
</clipPath>
</defs>
</svg>
